<mxfile>
    <diagram id="kKIk54Hs7YGdTdxQJprm" name="Page-1">
        <mxGraphModel dx="1949" dy="1870" grid="1" gridSize="10" guides="1" tooltips="1" connect="1" arrows="1" fold="1" page="1" pageScale="1" pageWidth="850" pageHeight="1100" math="0" shadow="0">
            <root>
                <mxCell id="0"/>
                <mxCell id="1" parent="0"/>
                <mxCell id="2" value="Unit" style="html=1;fontSize=24;strokeWidth=2;fillColor=#d5e8d4;strokeColor=#000;" parent="1" vertex="1">
                    <mxGeometry x="320" y="-440" width="160" height="80" as="geometry"/>
                </mxCell>
                <mxCell id="20" style="edgeStyle=orthogonalEdgeStyle;rounded=0;orthogonalLoop=1;jettySize=auto;html=1;exitX=0.5;exitY=1;exitDx=0;exitDy=0;entryX=0.25;entryY=0;entryDx=0;entryDy=0;endArrow=none;endFill=0;startArrow=block;startFill=0;endSize=6;startSize=10;strokeWidth=2;" parent="1" source="4" target="15" edge="1">
                    <mxGeometry relative="1" as="geometry"/>
                </mxCell>
                <mxCell id="4" value="&lt;span class=&quot;pl-v&quot;&gt;Parameterized&lt;br&gt;Element&lt;/span&gt;" style="html=1;fontSize=24;strokeWidth=2;fillColor=#dae8fc;" parent="1" vertex="1">
                    <mxGeometry x="-40" y="-280" width="160" height="80" as="geometry"/>
                </mxCell>
                <mxCell id="18" style="edgeStyle=orthogonalEdgeStyle;rounded=0;orthogonalLoop=1;jettySize=auto;html=1;exitX=0.75;exitY=1;exitDx=0;exitDy=0;entryX=0.5;entryY=0;entryDx=0;entryDy=0;endArrow=none;endFill=0;startArrow=block;startFill=0;endSize=6;startSize=10;strokeWidth=2;" parent="1" source="13" target="14" edge="1">
                    <mxGeometry relative="1" as="geometry"/>
                </mxCell>
                <mxCell id="19" style="edgeStyle=orthogonalEdgeStyle;rounded=0;orthogonalLoop=1;jettySize=auto;html=1;exitX=0.25;exitY=1;exitDx=0;exitDy=0;entryX=0.5;entryY=0;entryDx=0;entryDy=0;endArrow=none;endFill=0;startArrow=block;startFill=0;endSize=6;startSize=10;strokeWidth=2;" parent="1" source="13" target="4" edge="1">
                    <mxGeometry relative="1" as="geometry"/>
                </mxCell>
                <mxCell id="25" style="edgeStyle=orthogonalEdgeStyle;rounded=0;orthogonalLoop=1;jettySize=auto;html=1;exitX=1;exitY=0.5;exitDx=0;exitDy=0;entryX=0;entryY=0.5;entryDx=0;entryDy=0;endArrow=diamond;endFill=0;endSize=10;startSize=12;strokeWidth=2;" parent="1" source="13" target="2" edge="1">
                    <mxGeometry relative="1" as="geometry"/>
                </mxCell>
                <mxCell id="47" value="1..*" style="edgeLabel;html=1;align=center;verticalAlign=middle;resizable=0;points=[];labelBackgroundColor=none;" vertex="1" connectable="0" parent="25">
                    <mxGeometry x="-0.0917" y="1" relative="1" as="geometry">
                        <mxPoint x="-26.33" y="-9" as="offset"/>
                    </mxGeometry>
                </mxCell>
                <mxCell id="49" value="0..*" style="edgeLabel;html=1;align=center;verticalAlign=middle;resizable=0;points=[];labelBackgroundColor=none;" vertex="1" connectable="0" parent="25">
                    <mxGeometry x="0.15" relative="1" as="geometry">
                        <mxPoint x="14" y="-10" as="offset"/>
                    </mxGeometry>
                </mxCell>
                <mxCell id="13" value="Base&lt;br&gt;Element" style="html=1;fontSize=24;strokeWidth=2;fillColor=#dae8fc;" parent="1" vertex="1">
                    <mxGeometry x="80" y="-440" width="160" height="80" as="geometry"/>
                </mxCell>
                <mxCell id="22" style="edgeStyle=orthogonalEdgeStyle;rounded=0;orthogonalLoop=1;jettySize=auto;html=1;exitX=0.5;exitY=1;exitDx=0;exitDy=0;entryX=0.75;entryY=0;entryDx=0;entryDy=0;endArrow=none;endFill=0;startArrow=block;startFill=0;endSize=6;startSize=10;strokeWidth=2;" parent="1" source="14" target="15" edge="1">
                    <mxGeometry relative="1" as="geometry"/>
                </mxCell>
                <mxCell id="14" value="&lt;span class=&quot;pl-v&quot;&gt;State&lt;br&gt;Element&lt;/span&gt;" style="html=1;fontSize=24;strokeWidth=2;fillColor=#dae8fc;" parent="1" vertex="1">
                    <mxGeometry x="200" y="-280" width="160" height="80" as="geometry"/>
                </mxCell>
                <mxCell id="23" style="edgeStyle=orthogonalEdgeStyle;rounded=0;orthogonalLoop=1;jettySize=auto;html=1;exitX=0.25;exitY=1;exitDx=0;exitDy=0;entryX=0.5;entryY=0;entryDx=0;entryDy=0;endArrow=none;endFill=0;startArrow=block;startFill=0;endSize=6;startSize=10;strokeWidth=2;" parent="1" source="15" target="17" edge="1">
                    <mxGeometry relative="1" as="geometry"/>
                </mxCell>
                <mxCell id="24" style="edgeStyle=orthogonalEdgeStyle;rounded=0;orthogonalLoop=1;jettySize=auto;html=1;exitX=0.75;exitY=1;exitDx=0;exitDy=0;entryX=0.5;entryY=0;entryDx=0;entryDy=0;endArrow=none;endFill=0;startArrow=block;startFill=0;endSize=6;startSize=10;strokeWidth=2;" parent="1" source="15" target="16" edge="1">
                    <mxGeometry relative="1" as="geometry">
                        <mxPoint x="235.86206896551724" y="330" as="targetPoint"/>
                    </mxGeometry>
                </mxCell>
                <mxCell id="15" value="&lt;span class=&quot;pl-v&quot;&gt;State&lt;br&gt;Parameterized&lt;br&gt;Element&lt;/span&gt;" style="html=1;fontSize=24;strokeWidth=2;fillColor=#dae8fc;" parent="1" vertex="1">
                    <mxGeometry x="80" y="-120" width="160" height="80" as="geometry"/>
                </mxCell>
                <mxCell id="16" value="ODEs&lt;br&gt;Element" style="html=1;fontSize=24;strokeWidth=2;fillColor=#dae8fc;" parent="1" vertex="1">
                    <mxGeometry x="200" y="40" width="160" height="80" as="geometry"/>
                </mxCell>
                <mxCell id="17" value="&lt;span class=&quot;pl-v&quot;&gt;Lag&lt;br&gt;Element&lt;/span&gt;" style="html=1;fontSize=24;strokeWidth=2;fillColor=#dae8fc;" parent="1" vertex="1">
                    <mxGeometry x="-40" y="40" width="160" height="80" as="geometry"/>
                </mxCell>
                <mxCell id="26" value="Numerical &lt;br&gt;approximator" style="html=1;fontSize=24;strokeWidth=2;fillColor=#fff2cc;" vertex="1" parent="1">
                    <mxGeometry x="440" y="40" width="160" height="80" as="geometry"/>
                </mxCell>
                <mxCell id="27" value="Root&lt;br&gt;Finder" style="html=1;fontSize=24;strokeWidth=2;fillColor=#fff2cc;" vertex="1" parent="1">
                    <mxGeometry x="680" y="40" width="160" height="80" as="geometry"/>
                </mxCell>
                <mxCell id="28" value="Node" style="html=1;fontSize=24;strokeWidth=2;fillColor=#e1d5e7;strokeColor=#000;" vertex="1" parent="1">
                    <mxGeometry x="560" y="-440" width="160" height="80" as="geometry"/>
                </mxCell>
                <mxCell id="29" value="Network" style="html=1;fontSize=24;strokeWidth=2;fillColor=#ffe6cc;strokeColor=#000;" vertex="1" parent="1">
                    <mxGeometry x="800" y="-440" width="160" height="80" as="geometry"/>
                </mxCell>
                <mxCell id="30" value="Common&lt;br&gt;Class" style="html=1;fontSize=24;strokeWidth=2;fillColor=#f5f5f5;fontColor=#333333;strokeColor=#000;" vertex="1" parent="1">
                    <mxGeometry x="560" y="-600" width="160" height="80" as="geometry"/>
                </mxCell>
                <mxCell id="37" style="edgeStyle=orthogonalEdgeStyle;rounded=0;orthogonalLoop=1;jettySize=auto;html=1;exitX=0.25;exitY=1;exitDx=0;exitDy=0;entryX=0.5;entryY=0;entryDx=0;entryDy=0;endArrow=none;endFill=0;startArrow=block;startFill=0;endSize=6;startSize=10;strokeWidth=2;" edge="1" parent="1" source="30" target="2">
                    <mxGeometry relative="1" as="geometry">
                        <mxPoint x="500" y="160" as="sourcePoint"/>
                        <mxPoint x="420" y="220" as="targetPoint"/>
                    </mxGeometry>
                </mxCell>
                <mxCell id="38" style="edgeStyle=orthogonalEdgeStyle;rounded=0;orthogonalLoop=1;jettySize=auto;html=1;exitX=0.5;exitY=1;exitDx=0;exitDy=0;entryX=0.5;entryY=0;entryDx=0;entryDy=0;endArrow=none;endFill=0;startArrow=block;startFill=0;endSize=6;startSize=10;strokeWidth=2;" edge="1" parent="1" source="30" target="28">
                    <mxGeometry relative="1" as="geometry">
                        <mxPoint x="650" y="220" as="sourcePoint"/>
                        <mxPoint x="570" y="280" as="targetPoint"/>
                    </mxGeometry>
                </mxCell>
                <mxCell id="39" style="edgeStyle=orthogonalEdgeStyle;rounded=0;orthogonalLoop=1;jettySize=auto;html=1;exitX=0.75;exitY=1;exitDx=0;exitDy=0;entryX=0.5;entryY=0;entryDx=0;entryDy=0;endArrow=none;endFill=0;startArrow=block;startFill=0;endSize=6;startSize=10;strokeWidth=2;" edge="1" parent="1" source="30" target="29">
                    <mxGeometry relative="1" as="geometry">
                        <mxPoint x="800" y="200" as="sourcePoint"/>
                        <mxPoint x="720" y="260" as="targetPoint"/>
                    </mxGeometry>
                </mxCell>
                <mxCell id="43" style="edgeStyle=orthogonalEdgeStyle;rounded=0;orthogonalLoop=1;jettySize=auto;html=1;endArrow=diamond;endFill=0;endSize=10;startSize=12;exitX=0;exitY=0.5;exitDx=0;exitDy=0;entryX=1;entryY=0.5;entryDx=0;entryDy=0;strokeWidth=2;" edge="1" parent="1" source="26" target="16">
                    <mxGeometry relative="1" as="geometry">
                        <mxPoint x="490" y="520" as="sourcePoint"/>
                        <mxPoint x="475" y="350" as="targetPoint"/>
                    </mxGeometry>
                </mxCell>
                <mxCell id="56" value="1..*" style="edgeLabel;html=1;align=center;verticalAlign=middle;resizable=0;points=[];labelBackgroundColor=none;" vertex="1" connectable="0" parent="43">
                    <mxGeometry x="-0.0593" y="-1" relative="1" as="geometry">
                        <mxPoint x="-22.33" y="-9" as="offset"/>
                    </mxGeometry>
                </mxCell>
                <mxCell id="57" value="1" style="edgeLabel;html=1;align=center;verticalAlign=middle;resizable=0;points=[];labelBackgroundColor=none;" vertex="1" connectable="0" parent="43">
                    <mxGeometry x="-0.1233" y="1" relative="1" as="geometry">
                        <mxPoint x="25.12" y="-11" as="offset"/>
                    </mxGeometry>
                </mxCell>
                <mxCell id="50" style="edgeStyle=orthogonalEdgeStyle;rounded=0;orthogonalLoop=1;jettySize=auto;html=1;exitX=1;exitY=0.5;exitDx=0;exitDy=0;entryX=0;entryY=0.5;entryDx=0;entryDy=0;endArrow=diamond;endFill=0;endSize=10;startSize=12;strokeWidth=2;" edge="1" parent="1">
                    <mxGeometry relative="1" as="geometry">
                        <mxPoint x="480" y="-400.17" as="sourcePoint"/>
                        <mxPoint x="560" y="-400.17" as="targetPoint"/>
                    </mxGeometry>
                </mxCell>
                <mxCell id="51" value="1..*" style="edgeLabel;html=1;align=center;verticalAlign=middle;resizable=0;points=[];labelBackgroundColor=none;" vertex="1" connectable="0" parent="50">
                    <mxGeometry x="-0.0917" y="1" relative="1" as="geometry">
                        <mxPoint x="-26.33" y="-9" as="offset"/>
                    </mxGeometry>
                </mxCell>
                <mxCell id="52" value="0..*" style="edgeLabel;html=1;align=center;verticalAlign=middle;resizable=0;points=[];labelBackgroundColor=none;" vertex="1" connectable="0" parent="50">
                    <mxGeometry x="0.15" relative="1" as="geometry">
                        <mxPoint x="14" y="-10" as="offset"/>
                    </mxGeometry>
                </mxCell>
                <mxCell id="53" style="edgeStyle=orthogonalEdgeStyle;rounded=0;orthogonalLoop=1;jettySize=auto;html=1;exitX=1;exitY=0.5;exitDx=0;exitDy=0;entryX=0;entryY=0.5;entryDx=0;entryDy=0;endArrow=diamond;endFill=0;endSize=10;startSize=12;strokeWidth=2;" edge="1" parent="1">
                    <mxGeometry relative="1" as="geometry">
                        <mxPoint x="720" y="-400.17" as="sourcePoint"/>
                        <mxPoint x="800" y="-400.17" as="targetPoint"/>
                    </mxGeometry>
                </mxCell>
                <mxCell id="54" value="1..*" style="edgeLabel;html=1;align=center;verticalAlign=middle;resizable=0;points=[];labelBackgroundColor=none;" vertex="1" connectable="0" parent="53">
                    <mxGeometry x="-0.0917" y="1" relative="1" as="geometry">
                        <mxPoint x="-26.33" y="-9" as="offset"/>
                    </mxGeometry>
                </mxCell>
                <mxCell id="55" value="0..1" style="edgeLabel;html=1;align=center;verticalAlign=middle;resizable=0;points=[];labelBackgroundColor=none;" vertex="1" connectable="0" parent="53">
                    <mxGeometry x="0.15" relative="1" as="geometry">
                        <mxPoint x="14" y="-10" as="offset"/>
                    </mxGeometry>
                </mxCell>
                <mxCell id="58" style="edgeStyle=orthogonalEdgeStyle;rounded=0;orthogonalLoop=1;jettySize=auto;html=1;endArrow=diamond;endFill=0;endSize=10;startSize=12;exitX=0;exitY=0.5;exitDx=0;exitDy=0;entryX=1;entryY=0.5;entryDx=0;entryDy=0;strokeWidth=2;" edge="1" parent="1">
                    <mxGeometry relative="1" as="geometry">
                        <mxPoint x="680" y="79.88" as="sourcePoint"/>
                        <mxPoint x="600" y="79.88" as="targetPoint"/>
                    </mxGeometry>
                </mxCell>
                <mxCell id="59" value="1..*" style="edgeLabel;html=1;align=center;verticalAlign=middle;resizable=0;points=[];labelBackgroundColor=none;" vertex="1" connectable="0" parent="58">
                    <mxGeometry x="-0.0593" y="-1" relative="1" as="geometry">
                        <mxPoint x="-22.33" y="-9" as="offset"/>
                    </mxGeometry>
                </mxCell>
                <mxCell id="60" value="0..1" style="edgeLabel;html=1;align=center;verticalAlign=middle;resizable=0;points=[];labelBackgroundColor=none;" vertex="1" connectable="0" parent="58">
                    <mxGeometry x="-0.1233" y="1" relative="1" as="geometry">
                        <mxPoint x="22" y="-11" as="offset"/>
                    </mxGeometry>
                </mxCell>
            </root>
        </mxGraphModel>
    </diagram>
</mxfile>
